<svg width="45" height="47" viewBox="0 0 45 47" version="1.1" xmlns="http://www.w3.org/2000/svg" xmlns:xlink="http://www.w3.org/1999/xlink">
<title>edit_pencil</title>
<desc>Created using Figma</desc>
<g id="Canvas" transform="translate(-206 282)">
<g id="edit_pencil">
<g id="Polygon">
<use xlink:href="#path0_fill" transform="matrix(0.962954 -0.269667 0.31362 0.949549 200.984 -247.671)"/>
</g>
<g id="Polygon">
<use xlink:href="#path1_fill" transform="matrix(0.969418 -0.245417 0.289692 0.95712 204.925 -247.348)" fill="#FFFFFF"/>
</g>
<g id="Rectangle">
<use xlink:href="#path2_fill" transform="matrix(0.707107 -0.707107 0.707107 0.707107 208.519 -250.079)"/>
</g>
<g id="Rectangle 4">
<use xlink:href="#path3_fill" transform="matrix(0.707107 -0.707107 0.707107 0.707107 234.805 -276.364)"/>
</g>
<g id="Line">
<use xlink:href="#path4_stroke" transform="matrix(0.707107 -0.707107 0.707107 0.707107 211 -246)" fill="#FFFFFF"/>
</g>
<g id="Line">
<use xlink:href="#path4_stroke" transform="matrix(0.707107 -0.707107 0.707107 0.707107 216 -241)" fill="#FFFFFF"/>
</g>
</g>
</g>
<defs>
<path id="path0_fill" d="M 8.04899 0L 15.0196 12.7992L 1.07836 12.7992L 8.04899 0Z"/>
<path id="path1_fill" d="M 5.54654 0L 10.35 9.35944L 0.743095 9.35944L 5.54654 0Z"/>
<path id="path2_fill" d="M 0 0L 34 0L 34 15.3063L 0 15.3063L 0 0Z"/>
<path id="path3_fill" d="M 0 0L 5.78022 0C 7.98936 0 9.78022 1.79086 9.78022 4L 9.78022 11.31C 9.78022 13.5191 7.98936 15.31 5.78022 15.31L 0 15.31L 0 0Z"/>
<path id="path4_stroke" d="M 0 0L 35.3553 0L 35.3553 -1L 0 -1L 0 0Z"/>
</defs>
</svg>
