<svg width="80" height="80" viewBox="0 0 80 80" version="1.1" xmlns="http://www.w3.org/2000/svg" xmlns:xlink="http://www.w3.org/1999/xlink">
<title>edit_button</title>
<desc>Created using Figma</desc>
<g id="Canvas" transform="translate(-145 -91)">
<g id="edit_button">
<g id="Ellipse" filter="url(#filter0_i)">
<use xlink:href="#path0_fill" transform="translate(145 91)" fill="#76C39B"/>
</g>
<g id="Pencil" filter="url(#filter1_i)">
<g id="Polygon">
<use xlink:href="#path1_fill" transform="matrix(0.969481 -0.245167 0.289446 0.957194 157.881 140.202)" fill="#445C6C"/>
</g>
<g id="Rectangle">
<use xlink:href="#path2_fill" transform="matrix(0.707107 -0.707107 0.707107 0.707107 166.519 137.523)" fill="#445C6C"/>
</g>
<g id="Rectangle 4">
<use xlink:href="#path3_fill" transform="matrix(0.707107 -0.707107 0.707107 0.707107 192.805 111.237)" fill="#445C6C"/>
</g>
</g>
</g>
</g>
<defs>
<filter id="filter0_i" filterUnits="userSpaceOnUse" x="145" y="91" width="80" height="84" color-interpolation-filters="sRGB">
<feFlood flood-opacity="0" result="BackgroundImageFix"/>
<feBlend mode="normal" in="SourceGraphic" in2="BackgroundImageFix" result="shape"/>
<feColorMatrix in="SourceAlpha" type="matrix" values="0 0 0 0 0 0 0 0 0 0 0 0 0 0 0 0 0 0 255 0" result="hardAlpha"/>
<feOffset dx="0" dy="4"/>
<feGaussianBlur stdDeviation="2"/>
<feComposite in2="hardAlpha" operator="arithmetic" k2="-1" k3="1"/>
<feColorMatrix type="matrix" values="0 0 0 0 1 0 0 0 0 1 0 0 0 0 1 0 0 0 0.25 0"/>
<feBlend mode="normal" in2="shape" result="effect1_innerShadow"/>
</filter>
<filter id="filter1_i" filterUnits="userSpaceOnUse" x="162" y="105" width="48" height="52" color-interpolation-filters="sRGB">
<feFlood flood-opacity="0" result="BackgroundImageFix"/>
<feBlend mode="normal" in="SourceGraphic" in2="BackgroundImageFix" result="shape"/>
<feColorMatrix in="SourceAlpha" type="matrix" values="0 0 0 0 0 0 0 0 0 0 0 0 0 0 0 0 0 0 255 0" result="hardAlpha"/>
<feOffset dx="0" dy="4"/>
<feGaussianBlur stdDeviation="2"/>
<feComposite in2="hardAlpha" operator="arithmetic" k2="-1" k3="1"/>
<feColorMatrix type="matrix" values="0 0 0 0 0 0 0 0 0 0 0 0 0 0 0 0 0 0 0.25 0"/>
<feBlend mode="normal" in2="shape" result="effect1_innerShadow"/>
</filter>
<path id="path0_fill" d="M 80 40C 80 62.0914 62.0914 80 40 80C 17.9086 80 0 62.0914 0 40C 0 17.9086 17.9086 0 40 0C 62.0914 0 80 17.9086 80 40Z"/>
<path id="path1_fill" d="M 8.27113 0L 15.4341 13.2111L 1.10812 13.2111L 8.27113 0Z"/>
<path id="path2_fill" d="M 0 0L 36.2667 0L 36.2667 15.3063L 0 15.3063L 0 0Z"/>
<path id="path3_fill" d="M 0 0L 8 0L 8 15.31L 0 15.31L 0 0Z"/>
</defs>
</svg>
