<svg enable-background="new 0 0 491.52 491.52" viewBox="0 0 491.52 491.52" xmlns="http://www.w3.org/2000/svg"><g fill="#c3cfd8"><path d="m0 0v491.52h491.52v-491.52zm471.04 471.04h-450.56v-368.64h450.56zm0-389.12h-450.56v-61.44h450.56z"/><path d="m430.08 40.96h20.48v20.48h-20.48z"/><path d="m389.12 40.96h20.48v20.48h-20.48z"/><path d="m348.16 40.96h20.48v20.48h-20.48z"/><path d="m51.2 40.96h245.76v20.48h-245.76z"/><path d="m334.92 197.56-14.48 14.48 64.44 64.44-64.44 64.44 14.48 14.48 78.92-78.92z"/><path d="m171.08 212.04-14.48-14.48-78.92 78.92 78.92 78.92 14.48-14.48-64.44-64.44z"/><path d="m118.939 276.481h243.406v20.48h-243.406z" transform="matrix(.3784 -.9257 .9257 .3784 -115.8136 400.9863)"/></g></svg>