<svg enable-background="new 0 0 64.017 64.017" viewBox="0 0 64.017 64.017" xmlns="http://www.w3.org/2000/svg"><path d="m63.429 21.988-1.41-1.41c-.779-.779-2.042-.779-2.821 0l-11.177 11.177v-29.738c0-1.105-.895-2-2-2h-30c-.679 0-1.353-.12-1.751.278l-13.971 13.971c-.398.398-.278 1.009-.278 1.751v46c0 1.105.895 2 2 2h44c1.105 0 2-.895 2-2v-21.8l15.408-15.408c.779-.779.779-2.042 0-2.821zm-49.408-18.562v10.591h-10.591zm32 58.591h-44v-46h13c.552 0 1-.448 1-1v-13h30v31.738l-8.45 8.45c-.16-.109-.342-.187-.55-.187h-26c-.552 0-1 .448-1 1s.448 1 1 1h24.738l-6.009 6.009c-.378.054-.695.315-.785.709l-.839 3.669c-.127.225-.163.506-.077.789.029.096.085.177.137.259.008.014.013.027.021.04.046.068.1.124.159.18.056.058.112.112.18.158.013.008.027.014.041.022.083.052.163.107.259.137.283.087.563.05.788-.077l3.669-.839c.42-.096.691-.446.719-.857l12-12v19.8zm-13.75-8.872-1.788.409.427-1.869 29.697-29.697 1.41 1.41zm-21.251-29.128h26c.552 0 1-.448 1-1s-.448-1-1-1h-26c-.552 0-1 .448-1 1s.448 1 1 1zm0 10h26c.552 0 1-.448 1-1s-.448-1-1-1h-26c-.552 0-1 .448-1 1s.448 1 1 1z" fill="#c3cfd8"/></svg>