<svg enable-background="new 0 0 60 60" viewBox="0 0 60 60" xmlns="http://www.w3.org/2000/svg"><g fill="#c3cfd8"><path d="m27 15.984h6c.553 0 1-.447 1-1s-.447-1-1-1h-6c-.553 0-1 .447-1 1s.447 1 1 1z"/><path d="m42 29.984h-6c-.553 0-1 .447-1 1s.447 1 1 1h6c.553 0 1-.447 1-1s-.447-1-1-1z"/><path d="m18 23.984h5c.553 0 1-.447 1-1s-.447-1-1-1h-5c-.553 0-1 .447-1 1s.447 1 1 1z"/><path d="m30 22.984c0 .553.447 1 1 1h7c.553 0 1-.447 1-1s-.447-1-1-1h-7c-.553 0-1 .447-1 1z"/><path d="m27 23.984c.27 0 .52-.11.71-.29.18-.19.29-.45.29-.71s-.11-.521-.29-.71c-.38-.37-1.04-.37-1.42 0-.181.189-.29.45-.29.71s.109.52.29.71c.189.179.45.29.71.29z"/><path d="m32 29.984h-10c-.553 0-1 .447-1 1s.447 1 1 1h10c.553 0 1-.447 1-1s-.447-1-1-1z"/><path d="m18 31.984c.27 0 .52-.11.71-.29.18-.19.29-.45.29-.71s-.11-.521-.29-.71c-.38-.37-1.061-.37-1.42 0-.181.189-.29.45-.29.71s.1.52.29.71c.18.179.439.29.71.29z"/><path d="m42 23.984c.26 0 .52-.11.71-.29.18-.19.29-.45.29-.71s-.11-.521-.29-.71c-.38-.37-1.04-.37-1.42 0-.181.189-.29.439-.29.71 0 .27.109.52.29.71.189.179.439.29.71.29z"/><path d="m0 27.52v31.125l20.354-15.657z"/><path d="m22.34 43.984-20.8 16h56.92l-20.8-16z"/><path d="m7.902 30.986 13.747 10.998h16.701l13.747-10.998 6.992-5.286-5.089-4.738v-11.978h-12.865l-8.593-8c-1.385-1.289-3.698-1.29-5.085.001l-8.592 7.999h-12.865v11.978l-5.09 4.738zm.098-20.002h8.717 26.566 8.717v8.116 9.403l-14.351 11.48h-15.298l-14.351-11.48v-9.403z"/><path d="m39.646 42.988 20.354 15.657v-31.125z"/></g></svg>