<svg enable-background="new 0 0 250.313 250.313" viewBox="0 0 250.313 250.313" xmlns="http://www.w3.org/2000/svg"><path clip-rule="evenodd" d="m244.186 214.604-54.379-54.378c-.289-.289-.628-.491-.93-.76 10.7-16.231 16.945-35.66 16.945-56.554 0-56.837-46.075-102.912-102.911-102.912s-102.911 46.075-102.911 102.911c0 56.835 46.074 102.911 102.91 102.911 20.895 0 40.323-6.245 56.554-16.945.269.301.47.64.759.929l54.38 54.38c8.169 8.168 21.413 8.168 29.583 0 8.168-8.169 8.168-21.413 0-29.582zm-141.275-44.458c-37.134 0-67.236-30.102-67.236-67.235 0-37.134 30.103-67.236 67.236-67.236 37.132 0 67.235 30.103 67.235 67.236s-30.103 67.235-67.235 67.235z" fill="#c3cfd8" fill-rule="evenodd"/></svg>