<svg enable-background="new 0 0 512 512" viewBox="0 0 512 512" xmlns="http://www.w3.org/2000/svg"><path d="m447.938 129.704c-.089-2.997-1.283-5.921-3.49-8.128l-118.065-118.065c-.005-.005-.01-.007-.014-.012-2.169-2.162-5.16-3.499-8.462-3.499h-228.629c-13.917 0-25.238 11.32-25.238 25.237v461.525c0 13.916 11.32 25.237 25.237 25.237h333.444c13.916 0 25.237-11.32 25.237-25.237v-356.71c.002-.118-.012-.232-.02-.348zm-118.043-88.773 77.135 77.135h-72.076c-2.79 0-5.059-2.269-5.059-5.059zm94.089 445.833c-.001.694-.567 1.26-1.262 1.26h-333.444c-.695 0-1.261-.566-1.261-1.261v-461.526c0-.695.566-1.261 1.261-1.261h216.641v89.031c0 16.009 13.025 29.035 29.035 29.035h89.031v344.722z" fill="#c3cfd8"/></svg>