<svg enable-background="new 0 0 256.61 256.61" height="48" viewBox="0 0 256.61 256.61" width="45" xmlns="http://www.w3.org/2000/svg"><g fill="#c3cfd8"><path d="m60.859 112.533c-6.853 0-6.853 10.646 0 10.646h81.875c6.865 0 6.865-10.646 0-10.646-27.292 0-54.581 0-81.875 0z"/><path d="m142.734 137.704c-27.292 0-54.581 0-81.875 0-6.853 0-6.853 10.634 0 10.634h81.875c6.866 0 6.866-10.634 0-10.634z"/><path d="m142.734 161.018c-27.292 0-54.581 0-81.875 0-6.853 0-6.853 10.633 0 10.633h81.875c6.866-.001 6.866-10.633 0-10.633z"/><path d="m142.734 186.184c-27.292 0-54.581 0-81.875 0-6.853 0-6.853 10.629 0 10.629h81.875c6.866-.001 6.866-10.629 0-10.629z"/><path d="m141.17 209.934c-27.302 0-54.601 0-81.89 0-6.848 0-6.848 10.633 0 10.633h81.89c6.845-.001 6.845-10.633 0-10.633z"/><path d="m25.362 58.087v198.523h152.877v-170.98l-28.406-27.543zm139.664 185.306h-126.441v-172.088h104.443v20.97h21.988v151.118z"/><path d="m51.204 27.667v22.978h13.223v-9.765h104.448v20.97h21.993v151.121h-5.809v13.217h19.027v-170.983l-28.406-27.538z"/><path d="m202.837 0h-124.474v22.983h13.218v-9.765h104.451v20.97h21.993v151.118h-5.804v13.217h19.027v-170.98z"/></g></svg>