<svg enable-background="new 0 0 30.609 30.609" viewBox="0 0 30.609 30.609" xmlns="http://www.w3.org/2000/svg"><g fill="#c3cfd8"><path d="m5.043 29.233c-.127 0-.255-.029-.375-.085-.305-.145-.5-.453-.5-.79v-4.765h-3.293c-.482.001-.875-.392-.875-.874v-16.574c0-.482.393-.875.875-.875h3.848c.483 0 .875.393.875.875v11.812l12.675.114c.226.002.444.092.605.251l3.819 3.771c.253.249.33.626.195.954-.134.328-.454.542-.809.543l-9.819.002-6.669 5.442c-.157.132-.355.199-.552.199zm-3.293-7.389h3.293c.483 0 .875.392.875.875v3.797l5.483-4.475c.156-.127.351-.196.553-.197l8-.002-2.053-2.025-13.187-.119c-.48-.005-.866-.395-.866-.875v-11.803h-2.098z"/><path d="m25.216 26.68c-.226 0-.447-.087-.614-.252l-6.7-6.612-13.188-.119c-.48-.004-.866-.394-.866-.874v-16.572c0-.483.392-.875.875-.875h25.011c.483 0 .875.392.875.875v16.572c0 .483-.392.875-.875.875h-3.644v6.107c0 .353-.212.672-.537.807-.108.047-.223.068-.337.068zm-19.618-8.723 12.675.114c.226.002.444.092.605.251l5.463 5.392v-4.891c0-.483.392-.875.875-.875h3.644v-14.823h-23.262z"/></g></svg>