<?xml version='1.0' encoding='iso-8859-1'?>
<svg version="1.1" xmlns="http://www.w3.org/2000/svg" viewBox="0 0 64.017 64.017" xmlns:xlink="http://www.w3.org/1999/xlink" enable-background="new 0 0 64.017 64.017">
  <g fill="#c3cfd8">
    <g fill="#c3cfd8">
      <path d="m63.429,21.988l-1.41-1.41c-0.779-0.779-2.042-0.779-2.821,0l-11.177,11.177v-29.738c0-1.105-0.895-2-2-2h-30c-0.679,0-1.353-0.12-1.751,0.278l-13.971,13.971c-0.398,0.398-0.278,1.009-0.278,1.751v46c0,1.105 0.895,2 2,2h44c1.105,0 2-0.895 2-2v-21.8l15.408-15.408c0.779-0.779 0.779-2.042 0-2.821zm-49.408-18.562v10.591h-10.591l10.591-10.591zm32,58.591h-44v-46h13c0.552,0 1-0.448 1-1v-13h30v31.738l-8.45,8.45c-0.16-0.109-0.342-0.187-0.55-0.187h-26c-0.552,0-1,0.448-1,1 0,0.552 0.448,1 1,1h24.738l-6.009,6.009c-0.378,0.054-0.695,0.315-0.785,0.709l-.839,3.669c-0.127,0.225-0.163,0.506-0.077,0.789 0.029,0.096 0.085,0.177 0.137,0.259 0.008,0.014 0.013,0.027 0.021,0.04 0.046,0.068 0.1,0.124 0.159,0.18 0.056,0.058 0.112,0.112 0.18,0.158 0.013,0.008 0.027,0.014 0.041,0.022 0.083,0.052 0.163,0.107 0.259,0.137 0.283,0.087 0.563,0.05 0.788-0.077l3.669-.839c0.42-0.096 0.691-0.446 0.719-0.857l12-12v19.8zm-13.75-8.872l-1.788,.409 .427-1.869 29.697-29.697 1.41,1.41-29.746,29.747zm-21.251-29.128h26c0.552,0 1-0.448 1-1 0-0.552-0.448-1-1-1h-26c-0.552,0-1,0.448-1,1 0,0.552 0.448,1 1,1zm0,10h26c0.552,0 1-0.448 1-1 0-0.552-0.448-1-1-1h-26c-0.552,0-1,0.448-1,1 0,0.552 0.448,1 1,1z"/>
    </g>
  </g>
</svg>
