<?xml version="1.0" encoding="iso-8859-1"?>
<!-- Generator: Adobe Illustrator 19.0.0, SVG Export Plug-In . SVG Version: 6.00 Build 0)  -->
<svg version="1.1" id="Layer_1" xmlns="http://www.w3.org/2000/svg" xmlns:xlink="http://www.w3.org/1999/xlink" x="0px" y="0px"
	 viewBox="0 0 491.52 491.52" style="enable-background:new 0 0 491.52 491.52;" xml:space="preserve">
<g fill="#c3cfd8">
	<g fill="#c3cfd8">
		<path d="M0,0v491.52h491.52V0H0z M471.04,471.04H20.48V102.4h450.56V471.04z M471.04,81.92H20.48V20.48h450.56V81.92z"/>
	</g>
</g>
<g fill="#c3cfd8">
	<g fill="#c3cfd8">
		<rect x="430.08" y="40.96" width="20.48" height="20.48"/>
	</g>
</g>
<g>
	<g fill="#c3cfd8">
		<rect x="389.12" y="40.96" width="20.48" height="20.48"/>
	</g>
</g>
<g fill="#c3cfd8">
	<g fill="#c3cfd8">
		<rect x="348.16" y="40.96" width="20.48" height="20.48"/>
	</g>
</g>
<g fill="#c3cfd8">
	<g fill="#c3cfd8">
		<rect x="51.2" y="40.96" width="245.76" height="20.48"/>
	</g>
</g>
<g>
	<g fill="#c3cfd8">
		<polygon points="334.92,197.56 320.44,212.04 384.88,276.48 320.44,340.92 334.92,355.4 413.84,276.48 		"/>
	</g>
</g>
<g>
	<g fill="#c3cfd8">
		<polygon points="171.08,212.04 156.6,197.56 77.68,276.48 156.6,355.4 171.08,340.92 106.64,276.48 		"/>
	</g>
</g>
<g>
	<g fill="#c3cfd8">
		
			<rect x="118.939" y="276.481" transform="matrix(0.3784 -0.9257 0.9257 0.3784 -115.8136 400.9863)" width="243.406" height="20.48"/>
	</g>
</g>
<g>
</g>
<g>
</g>
<g>
</g>
<g>
</g>
<g>
</g>
<g>
</g>
<g>
</g>
<g>
</g>
<g>
</g>
<g>
</g>
<g>
</g>
<g>
</g>
<g>
</g>
<g>
</g>
<g>
</g>
</svg>
